<?xml version="1.0" encoding="UTF-8"?>
<svg id="Layer_1" xmlns="http://www.w3.org/2000/svg" version="1.1" viewBox="0 0 500 125">
  <!-- Generator: Adobe Illustrator 29.8.1, SVG Export Plug-In . SVG Version: 2.1.1 Build 2)  -->
  <defs>
    <style>
      .st0 {
        fill: #f1f2f2;
      }
    </style>
  </defs>
  <path class="st0" d="M37.72,27.91h-5.25v66.55c.07,2.82,1.29,4.91,3.65,6.28,1.14.61,2.36.91,3.65.91h1.48v1.14H6.55v-1.14h1.48c2.74,0,4.83-1.18,6.28-3.54.61-1.06.95-2.24,1.03-3.54V31.22c-.08-1.98-.82-3.67-2.23-5.08-1.41-1.41-3.1-2.11-5.08-2.11h-1.48v-1.14h39.16c7.38,0,13.62,1.6,18.72,4.79,2.59,1.6,4.64,3.82,6.16,6.68,1.52,2.85,2.28,6.09,2.28,9.7s-.63,6.95-1.88,9.99c-1.26,3.04-3.35,5.71-6.28,7.99-2.93,2.28-6.45,3.65-10.56,4.11,4.41,1.45,8.29,4.79,11.64,10.05,8.22,13.17,14.31,21,18.26,23.52,1.98,1.22,4.45,1.87,7.42,1.94v1.14h-11.19c-6.47,0-11.87-.89-16.21-2.68-4.34-1.79-7.88-4.85-10.62-9.19-1.37-2.21-3.12-5.54-5.25-9.99-2.13-4.45-3.54-7.63-4.22-9.53-2.05-4.57-4.64-7.12-7.76-7.65v-1.14h3.54c3.42,0,6.45-1.03,9.08-3.08,2.63-2.05,4.4-5.4,5.31-10.05.3-1.6.46-2.85.46-3.77,0-6.24-1.26-10.75-3.77-13.53-2.51-2.78-5.75-4.2-9.7-4.28h-3.42Z"/>
  <path class="st0" d="M169.45,101.66h1.03v1.14h-36.42v-1.14h1.03c1.67,0,2.91-.51,3.71-1.54.8-1.03,1.2-2,1.2-2.91s-.19-1.83-.57-2.74l-5.59-14.04h-26.71l-5.94,14.04c-.38.99-.57,1.92-.57,2.8s.4,1.83,1.2,2.85c.8,1.03,2.07,1.54,3.82,1.54h.91v1.14h-24.43v-1.14h1.03c1.75,0,3.5-.53,5.25-1.6,1.75-1.07,3.2-2.66,4.34-4.79l26.37-59.7c3.58-7.53,5.48-12.52,5.71-14.95h1.03l33.9,74.43c1.14,2.21,2.59,3.86,4.34,4.97,1.75,1.1,3.54,1.66,5.37,1.66ZM109.06,75.63h22.83l-11.07-28.08-11.76,28.08Z"/>
  <path class="st0" d="M172.65,92.18c0-5.48,1.18-10.16,3.54-14.04h1.03c-.08.61-.11,1.22-.11,1.83,0,5.25,1.88,9.84,5.65,13.76,3.77,3.92,8.92,5.88,15.47,5.88,5.1,0,9.08-1.22,11.93-3.65,2.85-2.43,4.28-5.52,4.28-9.25,0-4.49-3.04-8.41-9.13-11.76l-19.86-13.13c-3.96-2.28-6.79-5.04-8.5-8.28-1.71-3.23-2.57-6.52-2.57-9.87,0-7.15,2.26-12.67,6.79-16.55,4.53-3.88,10.33-5.82,17.41-5.82,4.18,0,9.36.38,15.52,1.14h7.19l-1.48,16.78h-1.14c0-3.96-1.47-7.13-4.4-9.53-2.93-2.4-6.83-3.6-11.7-3.6-5.94,0-10.24,1.83-12.9,5.48-1.37,1.75-2.05,3.73-2.05,5.94,0,3.65,2.66,7.04,7.99,10.16l21.8,14.16c6.85,3.96,10.27,9.78,10.27,17.47,0,8.14-2.76,14.37-8.28,18.66-5.52,4.3-12.84,6.45-21.98,6.45-5.18,0-9.95-.63-14.33-1.88-4.38-1.26-7.59-2.95-9.65-5.08-.53-1.45-.8-3.2-.8-5.25Z"/>
  <path class="st0" d="M283.15,21.29c14.08,0,25.27,3.73,33.56,11.19,8.29,7.46,12.44,17.58,12.44,30.37s-4.15,22.91-12.44,30.37c-8.29,7.46-19.48,11.19-33.56,11.19s-25.27-3.73-33.56-11.19c-8.3-7.46-12.44-17.58-12.44-30.37,0-8.45,1.88-15.81,5.65-22.09,3.77-6.28,9.11-11.09,16.04-14.44,6.93-3.35,15.03-5.02,24.32-5.02ZM263.23,89.73c4.91,6.58,11.55,9.88,19.92,9.88s15.01-3.29,19.92-9.88c4.91-6.58,7.36-15.54,7.36-26.88,0-7.46-1.11-13.96-3.31-19.52-2.21-5.55-5.37-9.82-9.47-12.79-4.11-2.97-8.94-4.45-14.5-4.45-8.37,0-15.01,3.29-19.92,9.87-4.91,6.58-7.36,15.54-7.36,26.88s2.45,20.3,7.36,26.88Z"/>
  <path class="st0" d="M367.28,27.91h-5.25v66.55c.07,2.82,1.29,4.91,3.65,6.28,1.14.61,2.36.91,3.65.91h1.48v1.14h-34.7v-1.14h1.48c2.74,0,4.83-1.18,6.28-3.54.61-1.06.95-2.24,1.03-3.54V31.22c-.08-1.98-.82-3.67-2.23-5.08-1.41-1.41-3.1-2.11-5.08-2.11h-1.48v-1.14h39.16c7.38,0,13.62,1.6,18.72,4.79,2.59,1.6,4.64,3.82,6.17,6.68,1.52,2.85,2.28,6.09,2.28,9.7s-.63,6.95-1.88,9.99c-1.26,3.04-3.35,5.71-6.28,7.99s-6.45,3.65-10.56,4.11c4.41,1.45,8.29,4.79,11.64,10.05,8.22,13.17,14.31,21,18.26,23.52,1.98,1.22,4.45,1.87,7.42,1.94v1.14h-11.19c-6.47,0-11.87-.89-16.21-2.68-4.34-1.79-7.88-4.85-10.62-9.19-1.37-2.21-3.12-5.54-5.25-9.99-2.13-4.45-3.54-7.63-4.22-9.53-2.05-4.57-4.64-7.12-7.76-7.65v-1.14h3.54c3.42,0,6.45-1.03,9.08-3.08,2.63-2.05,4.39-5.4,5.31-10.05.3-1.6.46-2.85.46-3.77,0-6.24-1.26-10.75-3.77-13.53-2.51-2.78-5.75-4.2-9.7-4.28h-3.42Z"/>
  <path class="st0" d="M494.45,24.03h-1.6c-2.28,0-4.45.65-6.51,1.94-2.05,1.29-3.69,2.85-4.91,4.68l-22.49,35.85v27.97c0,1.98.72,3.67,2.17,5.08,1.44,1.41,3.16,2.11,5.14,2.11h1.37l.11,1.14h-34.7v-1.14h1.48c1.98,0,3.67-.68,5.08-2.05,1.41-1.37,2.15-3.04,2.23-5.02v-28.2l-21.8-35.84c-1.14-1.83-2.76-3.37-4.85-4.62-2.09-1.26-4.24-1.88-6.45-1.88h-1.6v-1.14h37.79v1.14h-1.48c-1.67,0-2.97.76-3.88,2.28-.46.84-.68,1.66-.68,2.45s.19,1.58.57,2.34l16.32,29.68,16.89-29.68c.46-.76.68-1.54.68-2.34s-.27-1.58-.8-2.34c-.91-1.6-2.21-2.4-3.88-2.4h-1.37v-1.14h27.17v1.14Z"/>
</svg>